{
  "accessors": [
    {
      "name": "CityEngineTerrainMaterial_1_0_positions",
      "componentType": 5126,
      "count": 10457,
      "min": [
        -707.0999755859375,
        -8.454000473022461,
        -542.8159790039062
      ],
      "max": [
        487.77899169921875,
        34.22999954223633,
        464.9129943847656
      ],
      "type": "VEC3",
      "bufferView": 0,
      "byteOffset": 0
    },
    {
      "name": "CityEngineTerrainMaterial_1_0_normals",
      "componentType": 5126,
      "count": 10457,
      "min": [
        -0.6231452226638794,
        0.5638632774353027,
        -0.7371643781661987
      ],
      "max": [
        0.8248000144958496,
        1,
        0.7468573451042175
      ],
      "type": "VEC3",
      "bufferView": 1,
      "byteOffset": 0
    },
    {
      "name": "CityEngineTerrainMaterial_1_0_texcoords",
      "componentType": 5126,
      "count": 10457,
      "min": [
        0,
        0
      ],
      "max": [
        1,
        1
      ],
      "type": "VEC2",
      "bufferView": 2,
      "byteOffset": 0
    },
    {
      "name": "CityEngineTerrainMaterial_1_0_indices",
      "componentType": 5123,
      "count": 59994,
      "min": [
        0
      ],
      "max": [
        10456
      ],
      "type": "SCALAR",
      "bufferView": 3,
      "byteOffset": 0
    }
  ],
  "asset": {
    "generator": "obj2gltf",
    "version": "2.0"
  },
  "buffers": [
    {
      "name": "dixing2_0",
      "byteLength": 1245928,
      "uri": "data:application/octet-stream;base64,"
    }
  ],
  "bufferViews": [
    {
      "name": "bufferView_0",
      "buffer": 0,
      "byteLength": 125484,
      "byteOffset": 0,
      "byteStride": 12,
      "target": 34962
    },
    {
      "name": "bufferView_1",
      "buffer": 0,
      "byteLength": 125484,
      "byteOffset": 125484,
      "byteStride": 12,
      "target": 34962
    },
    {
      "name": "bufferView_2",
      "buffer": 0,
      "byteLength": 83656,
      "byteOffset": 250968,
      "byteStride": 8,
      "target": 34962
    },
    {
      "name": "bufferView_3",
      "buffer": 0,
      "byteLength": 119988,
      "byteOffset": 334624,
      "target": 34963
    },
    {
      "buffer": 0,
      "byteOffset": 454612,
      "byteLength": 791314
    }
  ],
  "images": [
    {
      "name": "4.",
      "mimeType": "image/png",
      "bufferView": 4
    }
  ],
  "materials": [
    {
      "name": "CityEngineTerrainMaterial",
      "pbrMetallicRoughness": {
        "baseColorTexture": {
          "index": 0
        },
        "baseColorFactor": [
          1,
          1,
          1,
          1
        ],
        "metallicFactor": 0,
        "roughnessFactor": 1
      },
      "emissiveFactor": [
        0,
        0,
        0
      ],
      "alphaMode": "OPAQUE",
      "doubleSided": false
    }
  ],
  "meshes": [
    {
      "name": "CityEngineTerrainMaterial_1",
      "primitives": [
        {
          "attributes": {
            "POSITION": 0,
            "NORMAL": 1,
            "TEXCOORD_0": 2
          },
          "indices": 3,
          "material": 0,
          "mode": 4
        }
      ]
    }
  ],
  "nodes": [
    {
      "name": "CityEngineTerrainMaterial",
      "mesh": 0
    }
  ],
  "samplers": [
    {
      "magFilter": 9729,
      "minFilter": 9986,
      "wrapS": 10497,
      "wrapT": 10497
    }
  ],
  "scene": 0,
  "scenes": [
    {
      "nodes": [
        0
      ]
    }
  ],
  "textures": [
    {
      "name": "4.",
      "sampler": 0,
      "source": 0
    }
  ]
}
